<?xml version="1.0" encoding="iso-8859-1"?>
<!-- Uploaded to: SVG Repo, www.svgrepo.com, Generator: SVG Repo Mixer Tools -->
<svg version="1.1" id="Layer_1" xmlns="http://www.w3.org/2000/svg" xmlns:xlink="http://www.w3.org/1999/xlink" 
	 viewBox="0 0 512 512" xml:space="preserve">
<rect x="404.267" y="169.067" style="fill:#FF675C;" width="93.867" height="261.333"/>
<path style="fill:#E0DDDF;" d="M404.267,482.667V430.4h93.867v52.267c0,11.782-9.551,21.333-21.333,21.333h-51.2
	C413.818,504,404.267,494.449,404.267,482.667z"/>
<path style="fill:#C1BCBF;" d="M437.333,482.667V430.4h-33.067v52.267c0,11.782,9.551,21.333,21.333,21.333h33.067
	C446.884,504,437.333,494.449,437.333,482.667z"/>
<polygon style="fill:#FEFCED;" points="404.267,169.067 451.2,74.133 498.133,169.067 "/>
<polygon style="fill:#827980;" points="451.2,74.133 427.118,122.845 475.282,122.845 "/>
<rect x="472.533" y="169.067" style="fill:#FAEC8E;" width="25.6" height="261.333"/>
<rect x="404.267" y="169.067" style="fill:#FBC96C;" width="25.6" height="261.333"/>
<rect x="13.867" y="59.2" style="fill:#C1BCBF;" width="365.867" height="443.733"/>
<polygon style="fill:#F9F8F9;" points="379.733,59.2 13.867,59.2 13.867,502.933 304.711,502.933 379.733,427.911 "/>
<rect x="13.867" y="59.2" style="fill:#C1BCBF;" width="365.867" height="24.533"/>
<polygon style="fill:#F9F8F9;" points="304.711,502.933 379.733,427.911 304.711,427.911 "/>
<g>
	<rect x="178.133" y="8" style="fill:#439EE8;" width="38.4" height="103.467"/>
	<rect x="266.667" y="8" style="fill:#439EE8;" width="38.4" height="103.467"/>
	<rect x="89.6" y="8" style="fill:#439EE8;" width="38.4" height="103.467"/>
</g>
<g>
	<path style="fill:#5CC4E0;" d="M214.4,205.867c-4.419,0-8,3.582-8,8v6.933h-18.133v-6.933c0-4.418-3.581-8-8-8s-8,3.582-8,8v29.867
		c0,4.418,3.581,8,8,8s8-3.582,8-8V236.8H206.4v6.933c0,4.418,3.581,8,8,8s8-3.582,8-8v-29.867
		C222.4,209.449,218.819,205.867,214.4,205.867z"/>
	<path style="fill:#5CC4E0;" d="M90.667,354.133c-13.233,0-24-10.766-24-24c0-13.234,10.767-24,24-24s24,10.766,24,24
		C114.667,343.367,103.9,354.133,90.667,354.133z M90.667,322.133c-4.412,0-8,3.588-8,8c0,4.412,3.588,8,8,8s8-3.588,8-8
		C98.667,325.722,95.078,322.133,90.667,322.133z"/>
	<path style="fill:#5CC4E0;" d="M304,354.133c-13.233,0-24-10.766-24-24c0-13.234,10.767-24,24-24c13.233,0,24,10.766,24,24
		C328,343.367,317.233,354.133,304,354.133z M304,322.133c-4.412,0-8,3.588-8,8c0,4.412,3.588,8,8,8c4.412,0,8-3.588,8-8
		C312,325.722,308.412,322.133,304,322.133z"/>
</g>
<path d="M506.107,169.609c0.095-1.389-0.164-2.8-0.801-4.087l-46.933-94.933c-1.349-2.727-4.129-4.454-7.172-4.454
	c-3.043,0-5.823,1.727-7.172,4.454l-46.933,94.933c-0.637,1.289-0.896,2.699-0.801,4.087c-0.012,0.174-0.027,0.348-0.027,0.525
	v312.533c0,16.175,13.159,29.333,29.333,29.333h51.2c16.174,0,29.333-13.158,29.333-29.333V170.133
	C506.133,169.956,506.118,169.783,506.107,169.609z M472.533,344.533c-4.419,0-8,3.582-8,8V422.4h-26.667V178.133h26.667v145.886
	c0,4.418,3.581,8,8,8c4.419,0,8-3.582,8-8V178.133h9.6V422.4h-9.6v-69.867C480.533,348.115,476.953,344.533,472.533,344.533z
	 M412.267,178.133h9.6V422.4h-9.6V178.133z M451.2,92.185l11.378,23.015h-22.756L451.2,92.185z M431.911,131.2h38.577l14.766,29.867
	h-68.109L431.911,131.2z M476.8,496h-51.2c-7.353,0-13.333-5.981-13.333-13.333V438.4h77.867v44.267
	C490.133,490.019,484.153,496,476.8,496z"/>
<path d="M387.733,59.2c0-4.418-3.581-8-8-8h-66.667V8c0-4.418-3.581-8-8-8h-38.4c-4.419,0-8,3.582-8,8v43.2h-34.133V8
	c0-4.418-3.581-8-8-8h-38.4c-4.419,0-8,3.582-8,8v43.2H136V8c0-4.418-3.581-8-8-8H89.6c-4.419,0-8,3.582-8,8v43.227
	c-0.177-0.012-0.353-0.027-0.533-0.027h-67.2c-4.419,0-8,3.582-8,8v443.733c0,4.418,3.581,8,8,8h365.867c4.419,0,8-3.582,8-8
	v-75.017C387.733,427.913,387.733,59.2,387.733,59.2z M274.667,16h22.4v87.467h-22.4V16z M186.133,16h22.4v87.467h-22.4V16z
	 M97.6,16H120v87.467H97.6V16z M21.867,67.2h59.2c0.18,0,0.356-0.015,0.533-0.027v44.293c0,4.418,3.581,8,8,8H128
	c4.419,0,8-3.582,8-8V67.2h34.133v44.267c0,4.418,3.581,8,8,8h38.4c4.419,0,8-3.582,8-8V67.2h34.133v44.267c0,4.418,3.581,8,8,8
	h38.4c4.419,0,8-3.582,8-8V67.2h58.667v352.711h-67.022c-4.419,0-8,3.582-8,8v67.022H21.867V67.2z M360.419,435.911l-47.708,47.709
	v-47.709H360.419z M324.026,494.933l47.708-47.709v47.709H324.026z"/>
<path d="M90.667,380.8c27.937,0,50.667-22.73,50.667-50.667c0-11.501-3.858-22.114-10.339-30.627l27.698-30.957
	c10.26,8.789,23.569,14.117,38.108,14.117c14.596,0,27.953-5.371,38.23-14.223l28.958,30.661
	c-6.669,8.58-10.655,19.344-10.655,31.028c0,27.937,22.73,50.667,50.667,50.667c27.937,0,50.667-22.73,50.667-50.667
	c0-27.937-22.73-50.667-50.667-50.667c-10.492,0-20.25,3.206-28.345,8.69l-29.985-31.748c6.182-9.293,9.795-20.435,9.795-32.409
	c0-32.349-26.318-58.667-58.667-58.667S138.132,191.651,138.132,224c0,12.017,3.637,23.198,9.861,32.511l-28.575,31.937
	c-8.175-5.657-18.08-8.981-28.752-8.981C62.73,279.467,40,302.196,40,330.133C40,358.07,62.73,380.8,90.667,380.8z M338.667,330.133
	c0,19.115-15.551,34.667-34.667,34.667c-19.116,0-34.667-15.552-34.667-34.667s15.551-34.667,34.667-34.667
	C323.116,295.467,338.667,311.019,338.667,330.133z M196.8,181.333c23.526,0,42.667,19.14,42.667,42.667
	s-19.14,42.667-42.667,42.667s-42.667-19.14-42.667-42.667S173.274,181.333,196.8,181.333z M90.667,295.467
	c19.116,0,34.667,15.552,34.667,34.667S109.782,364.8,90.667,364.8S56,349.248,56,330.133S71.551,295.467,90.667,295.467z"/>
<path d="M282.667,252.8h33.067c4.419,0,8-3.582,8-8c0-4.418-3.581-8-8-8h-33.067c-4.419,0-8,3.582-8,8
	C274.667,249.218,278.247,252.8,282.667,252.8z"/>
<path d="M333.867,252.8h9.6c4.419,0,8-3.582,8-8c0-4.418-3.581-8-8-8h-9.6c-4.419,0-8,3.582-8,8
	C325.867,249.218,329.447,252.8,333.867,252.8z"/>
<path d="M215.467,412.8H60.8c-4.419,0-8,3.582-8,8s3.581,8,8,8h154.667c4.419,0,8-3.582,8-8S219.886,412.8,215.467,412.8z"/>
<path d="M259.2,412.8H240c-4.419,0-8,3.582-8,8s3.581,8,8,8h19.2c4.419,0,8-3.582,8-8S263.619,412.8,259.2,412.8z"/>
<path d="M173.867,448H59.733c-4.419,0-8,3.582-8,8c0,4.418,3.581,8,8,8h114.133c4.419,0,8-3.582,8-8
	C181.867,451.582,178.286,448,173.867,448z"/>
<path d="M56.533,169.6h54.4c4.419,0,8-3.582,8-8s-3.581-8-8-8h-54.4c-4.419,0-8,3.582-8,8S52.114,169.6,56.533,169.6z"/>
<path d="M131.2,169.6h11.733c4.419,0,8-3.582,8-8s-3.581-8-8-8H131.2c-4.419,0-8,3.582-8,8S126.781,169.6,131.2,169.6z"/>
<path d="M56.533,203.733H99.2c4.419,0,8-3.582,8-8c0-4.418-3.581-8-8-8H56.533c-4.419,0-8,3.582-8,8
	C48.533,200.151,52.114,203.733,56.533,203.733z"/>
</svg>